<svg width="1176" height="703" viewBox="0 0 1176 703" fill="none" xmlns="http://www.w3.org/2000/svg">
<g filter="url(#filter0_d_0_1)">
<rect x="786.896" y="201.466" width="12.8422" height="12.8422" rx="6.42109" fill="url(#paint0_linear_0_1)"/>
</g>
<g filter="url(#filter1_d_0_1)">
<rect x="1134.49" y="366.701" width="12.8422" height="12.8422" rx="6.42109" fill="url(#paint1_linear_0_1)"/>
</g>
<g filter="url(#filter2_d_0_1)">
<rect x="997.508" y="496.836" width="12.8422" height="12.8422" rx="6.42109" fill="url(#paint2_linear_0_1)"/>
</g>
<g filter="url(#filter3_d_0_1)">
<rect x="753.507" y="486.562" width="26.5405" height="26.5405" rx="13.2702" fill="url(#paint3_linear_0_1)"/>
</g>
<g filter="url(#filter4_d_0_1)">
<rect x="989.803" y="447.179" width="15.4106" height="15.4106" rx="7.7053" fill="url(#paint4_linear_0_1)"/>
</g>
<g filter="url(#filter5_d_0_1)">
<rect x="577.141" y="446.323" width="15.4106" height="15.4106" rx="7.7053" fill="url(#paint5_linear_0_1)"/>
</g>
<g filter="url(#filter6_d_0_1)">
<rect x="908.469" y="516.527" width="7.7053" height="7.7053" rx="3.85265" fill="url(#paint6_linear_0_1)"/>
</g>
<path d="M838.664 78.0968C838.664 78.0968 763.109 80.5413 743.986 115.374C725.362 149.296 760.754 213.039 760.754 213.039C760.754 213.039 812.454 298.12 798.202 352.797C773.872 446.14 618.578 349.703 563.126 428.633C501.371 516.535 596.794 701.645 596.794 701.645" stroke="#01FF88" stroke-width="0.8"/>
<path d="M1086.08 654.917C1086.08 654.917 1137.78 599.764 1126.67 561.611C1115.85 524.455 1045.75 504.408 1045.75 504.408C1045.75 504.408 949.036 480.805 920.451 432.065C871.652 348.857 1049.65 307.238 1033.05 212.215C1014.56 106.393 816.194 42.9741 816.194 42.9741" stroke="#01FF88" stroke-width="0.8"/>
<path d="M882.473 344.121C892.601 347.71 904.267 352.71 916.703 374.248C929.138 395.785 939.01 427.195 930.804 437.066C922.6 446.937 909.011 444.502 906.96 438.732C904.907 432.964 882.473 344.121 882.473 344.121Z" fill="#FF04AA"/>
<path d="M829.842 345.644C815.508 350.82 801.174 363.165 794.205 380.086C787.237 397.008 783.673 417.068 790.224 426.075C798.188 437.025 817.3 431.053 822.278 421.297C827.254 411.542 829.842 345.644 829.842 345.644Z" fill="#FF04AA"/>
<path d="M859.352 340.699C837.498 341.336 822.817 342.387 819.133 359.58C815.898 374.676 815.989 443.274 814.373 460.744C811.821 488.343 811.457 494.669 813.606 495.59C815.755 496.511 838.32 501.577 873.167 500.196C908.014 498.813 917.226 497.125 918.454 493.133C919.681 489.142 917.685 481.62 917.072 477.016C916.458 472.411 901.697 382.178 898.343 365.413C894.966 348.529 890.974 339.777 859.352 340.699Z" fill="#FF7BBB"/>
<path d="M911.569 410.908C920.084 409.702 931.056 414.755 930.927 425.908C930.799 437.061 918.748 445.137 903.108 443.214C887.468 441.293 856.059 435.138 843.88 432.317C831.7 429.497 819.65 426.934 816.188 423.472C812.727 420.011 814.778 416.036 817.727 416.036C820.675 416.036 823.366 420.011 847.342 420.011C871.314 420.011 894.39 413.344 911.569 410.908Z" fill="#FDC68A"/>
<path d="M800.969 428.27C791.725 426.375 789.82 414.334 791.811 400.199C793.205 390.31 803.507 365.811 808.625 350.992C814.114 335.097 817.098 330.881 819.891 332.17C823.492 333.836 819.248 339.543 819.646 346.908C820.044 354.274 821.156 382.153 821.299 396.489C821.499 416.397 812.548 430.643 800.969 428.27Z" fill="#FDC68A"/>
<path d="M826.264 248.88C826.264 248.88 807.578 241.712 819.842 230.131C832.103 218.548 852.538 217.998 858.963 222.959C865.384 227.925 863.632 247.228 861.297 248.329C858.963 249.434 829.183 251.638 826.264 248.88Z" fill="#5A381D"/>
<path d="M868.601 344.253L865.469 301.907L848.843 300.798L848.141 342.514C849.829 353.176 867.375 350.004 868.601 344.253Z" fill="#ED9F5E"/>
<path d="M897.48 281.876C901.178 304.703 888.587 331.617 868.475 334.901C841.861 339.244 824.338 312.797 820.637 289.965C816.933 267.135 833.404 247.959 856.058 244.257C878.71 240.554 893.777 259.048 897.48 281.876Z" fill="#FDC68A"/>
<path d="M861.576 302.872C862.718 302.416 863.947 302.133 865.211 302.141C866.454 302.152 867.824 302.451 868.774 303.5C869.218 304.014 869.473 304.834 869.204 305.504C869.138 305.86 868.894 306.113 868.741 306.413C868.516 306.65 868.294 306.895 868.05 307.104C867.051 307.919 865.862 308.34 864.689 308.686C865.756 308.082 866.86 307.542 867.704 306.716C868.564 305.945 869.021 304.719 868.254 303.932C867.558 303.123 866.34 302.773 865.182 302.657C863.997 302.547 862.792 302.684 861.576 302.872Z" fill="#9D5F54"/>
<path d="M852.902 316.669C854.878 317.296 856.792 317.814 858.751 318.365C860.693 318.929 862.953 318.399 864.837 319.176C862.661 319.062 860.289 319.731 858.286 319.176C857.292 318.884 856.311 318.56 855.39 318.152C854.471 317.749 853.588 317.271 852.902 316.669Z" fill="#9D5F54"/>
<path d="M860.064 319.354C861.996 318.889 863.763 318.334 865.596 317.791C867.435 317.273 869.261 316.717 871.313 316.483C869.86 317.671 868.127 318.456 866.263 319.022C865.319 319.284 864.344 319.499 863.309 319.581C862.279 319.666 861.184 319.643 860.064 319.354Z" fill="#9D5F54"/>
<path d="M873.79 296.444C873.983 297.181 874.735 297.624 875.472 297.432C876.208 297.241 876.652 296.488 876.461 295.751C876.269 295.014 875.516 294.572 874.778 294.763C874.041 294.955 873.599 295.708 873.79 296.444Z" fill="#5B3118"/>
<path d="M871.909 282.546C881.373 284.022 890.177 286.41 884.08 285.911C877.982 285.413 865.666 281.572 871.909 282.546Z" fill="#935025"/>
<path d="M851.583 296.444C851.392 297.181 850.639 297.624 849.902 297.432C849.165 297.241 848.722 296.488 848.913 295.751C849.105 295.014 849.858 294.572 850.595 294.763C851.331 294.955 851.775 295.708 851.583 296.444Z" fill="#5B3118"/>
<path d="M853.459 282.546C843.993 284.022 835.19 286.41 841.287 285.911C847.385 285.413 859.701 281.572 853.459 282.546Z" fill="#935025"/>
<path d="M843.792 300.183C843.792 300.961 841.775 301.592 839.287 301.592C836.798 301.592 834.78 300.961 834.78 300.183C834.78 299.405 836.798 298.774 839.287 298.774C841.775 298.774 843.792 299.405 843.792 300.183Z" fill="#F69D98"/>
<path d="M891.294 300.183C891.294 300.961 889.277 301.592 886.789 301.592C884.302 301.592 882.283 300.961 882.283 300.183C882.283 299.405 884.302 298.774 886.789 298.774C889.277 298.774 891.294 299.405 891.294 300.183Z" fill="#F69D98"/>
<path d="M870.304 243.135L866.633 239.953C861.054 235.793 851.959 234.451 836.619 238.536C824.387 241.793 810.311 248.409 811.8 269.612C812.422 278.474 816.713 285.346 818.834 293.714C820.894 293.814 822.453 293.48 824.151 294.708C825.471 295.663 827.208 298.55 827.723 299.456C826.81 289.568 826.618 281.296 835.631 275.647C843.854 270.495 846.484 261.944 845.17 257.779C851.176 256.166 861.625 258.356 866.078 254.152C871.239 249.283 874.265 246.693 870.304 243.135Z" fill="#794D2E"/>
<path d="M859.673 238.256C853.697 238.973 842.802 246.196 839.822 251.421L839.395 251.81C833.734 258.697 858.92 276.421 864.747 279.255C871.192 282.391 880.403 288.703 887.093 289.838C887.187 288.775 884.478 280.367 884.386 279.858C886.06 283.538 887.462 284.904 888.4 286.019C895.171 294.07 897.389 299.548 898.263 305.131C903.851 288.275 905.196 261.951 891.386 248.282C883.767 240.74 875.197 236.394 859.673 238.256Z" fill="#794D2E"/>
<path d="M829.585 297.305C831.242 301.941 831.187 305.386 828.345 306.421C825.501 307.459 819.375 305.193 817.72 300.556C816.063 295.923 817.03 291.328 819.875 290.292C822.723 289.248 827.933 292.679 829.585 297.305Z" fill="#FDC68A"/>
<path d="M813.581 337.791C813.149 333.064 813.73 327.255 815.061 324.401C817.397 319.402 822.459 319.79 825.494 321.165C828.53 322.54 828.551 329.022 827.532 331.126C824.807 336.754 820.321 337.437 819.437 339.88C818.281 341.173 813.59 339.813 813.581 337.791Z" fill="#FDC68A"/>
<path d="M820.772 318.548C825.952 319.59 825.849 321.986 825.741 325.79C825.653 328.846 822.064 329.37 818.191 328.781C815.442 328.362 814.367 326.361 814.367 326.361C814.367 326.361 816.195 317.628 820.772 318.548Z" fill="#FDC68A"/>
<path d="M816.946 324.491C816.867 325.315 816.895 326.161 817.153 326.917C817.399 327.684 818.001 328.25 818.729 328.555C819.451 328.877 820.26 329.02 821.068 329.107C821.872 329.2 822.681 329.186 823.436 328.975C824.191 328.767 824.871 328.324 825.333 327.691C825.806 327.065 826.064 326.287 826.172 325.501C826.303 324.695 826.132 323.916 825.898 323.118C825.686 322.329 825.432 321.527 824.902 320.881C825.498 321.469 825.86 322.26 826.146 323.04C826.276 323.443 826.418 323.819 826.503 324.254C826.577 324.68 826.591 325.11 826.557 325.539C826.493 326.394 826.211 327.246 825.695 327.957C825.188 328.676 824.413 329.2 823.574 329.443C822.734 329.703 821.847 329.689 821.013 329.579C820.181 329.47 819.336 329.309 818.548 328.936C817.765 328.557 817.107 327.845 816.899 326.996C816.689 326.153 816.782 325.301 816.946 324.491Z" fill="#D28C56"/>
<path d="M822.812 331.562C824.637 334.612 827.642 333.386 829.601 331.214C831.559 329.041 832.37 327.165 831.381 325.762C830.393 324.36 823.494 324.168 822.931 326.195C822.367 328.222 824.041 328.892 825.733 328.674C822.64 329.881 822.812 331.562 822.812 331.562Z" fill="#FCBC81"/>
<path d="M816.823 323.131C816.97 323.504 816.986 323.833 817.084 324.12C817.103 324.27 817.161 324.387 817.212 324.474C817.256 324.57 817.403 324.623 817.606 324.656C817.488 324.811 817.234 324.918 816.989 324.788C816.755 324.661 816.668 324.43 816.6 324.244C816.534 323.846 816.561 323.452 816.823 323.131Z" fill="#D28C56"/>
<path d="M823.274 332.39C822.932 331.857 822.926 331.145 823.163 330.543C823.398 329.933 823.863 329.444 824.374 329.065C824.902 328.702 825.494 328.444 826.105 328.295C826.712 328.127 827.341 328.086 827.961 328.076C826.759 328.351 825.54 328.635 824.574 329.346C824.082 329.678 823.667 330.122 823.406 330.65C823.156 331.175 823.052 331.804 823.274 332.39Z" fill="#D28C56"/>
<path d="M823.474 325.571C823.011 326.21 822.883 327.049 823.308 327.636C823.491 327.942 823.796 328.162 824.127 328.342C824.457 328.525 824.835 328.632 825.216 328.757C824.819 328.759 824.404 328.741 824.018 328.583C823.631 328.441 823.268 328.184 823.018 327.825C822.79 327.456 822.689 326.994 822.796 326.578C822.89 326.16 823.145 325.8 823.474 325.571Z" fill="#D28C56"/>
<path d="M890.19 394.708C890.325 396.938 877.297 399.544 861.091 400.53C844.883 401.515 831.636 400.507 831.501 398.278C831.366 396.047 844.394 393.441 860.6 392.457C876.807 391.471 890.054 392.479 890.19 394.708Z" fill="#FF04AA"/>
<path d="M575.33 337.764C575.536 335.07 575.208 332.204 573.065 330.814C568.978 328.163 564.007 324.737 561.908 322.584C559.942 320.566 562.571 316.051 564.524 313.713C566.479 311.377 568.921 310.967 570.776 312.519C572.784 314.199 575.087 315.853 579.82 320.561C582.729 323.456 580.96 326.143 582.251 336.809C581.183 338.644 576.938 339.174 575.33 337.764Z" fill="#FDC68A"/>
<path d="M573.997 317.542C569.719 311.944 567.486 308.42 566.072 305.838C564.657 303.256 564.207 301.999 562.827 302.968C561.447 303.936 564.47 311.283 564.47 311.283C564.47 311.283 554.135 305.477 552.763 308.397C550.991 312.173 550.18 314.249 553.257 317.134C556.335 320.019 563.503 322.596 566.703 325.582C569.902 328.569 573.084 325.014 573.997 317.542Z" fill="#FDC68A"/>
<path d="M557.043 316.487L556.037 293.243L578.004 292.293L579.01 315.537L557.043 316.487ZM555.028 279.799C554.942 277.814 554.95 275.85 555.058 273.905C555.162 271.961 555.553 270.098 556.235 268.315C556.915 266.536 557.976 264.81 559.418 263.139C560.86 261.466 562.83 259.915 565.323 258.481C566.337 257.87 567.793 257.051 569.688 256.022C571.584 254.993 573.472 253.775 575.353 252.367C577.231 250.963 578.845 249.401 580.191 247.685C581.536 245.971 582.167 244.123 582.08 242.138C581.986 239.965 581.062 238.275 579.305 237.076C577.55 235.873 575.537 235.322 573.27 235.418C571.569 235.493 570.117 235.889 568.92 236.601C567.719 237.316 566.692 238.167 565.835 239.147C564.978 240.132 564.264 241.133 563.693 242.153C563.121 243.171 562.568 244.025 562.029 244.71L544.354 233.262C546.56 227.394 550.238 222.738 555.391 219.296C560.543 215.857 566.522 213.987 573.323 213.694C576.913 213.537 580.573 213.901 584.304 214.78C588.033 215.66 591.435 217.168 594.51 219.309C597.584 221.446 600.122 224.318 602.123 227.923C604.125 231.528 605.242 235.976 605.469 241.266C605.665 245.802 605.017 249.973 603.527 253.775C602.034 257.58 599.224 260.991 595.096 264.007C593.078 265.517 591.005 266.836 588.878 267.968C586.748 269.103 584.787 270.229 582.989 271.347C581.192 272.468 579.726 273.618 578.595 274.803C577.461 275.988 576.931 277.338 576.996 278.847L555.028 279.799Z" fill="url(#paint7_linear_0_1)"/>
<path d="M675.865 326.337C663.32 328.73 645.993 330.639 628.344 355.54C610.696 380.441 595.937 398.89 591.618 405.653C587.3 412.418 582.282 423.618 590.419 433.099C598.553 442.582 613.218 431.25 625.949 416.629C638.681 402.008 651.778 385.349 659.476 373.545C667.172 361.742 679.061 331.52 675.865 326.337Z" fill="#ECECE8"/>
<path d="M573.06 336.414C575.541 336.57 581.65 335.455 583.977 334.165C586.559 342.684 592.591 363.706 598.031 379.391C605.389 400.606 620.619 422.214 606.139 431.523C593.177 439.856 586.132 434.034 580.979 410.982C575.364 385.859 573.06 336.414 573.06 336.414Z" fill="#ECECE8"/>
<path d="M769.582 274.992C756.482 286.951 715.102 332.371 711.412 338.468C707.722 344.563 731.868 385.543 737.765 377.61C745.143 367.688 772.467 334.164 784.832 315.025C794.36 300.277 799.311 289.667 801.225 283.707C804.636 273.097 803.398 264.943 794.784 262.676C787.583 260.78 778.299 267.033 769.582 274.992Z" fill="#ECECE8"/>
<path d="M689.461 322.662C662.571 322.182 647.704 334.884 643.77 354.533C639.835 374.184 638.305 475.31 638.742 486.094C639.179 496.876 707.387 505.264 746.957 486.094C745.425 470.516 740.835 383.29 740.398 374.423C739.961 365.557 733.402 323.445 689.461 322.662Z" fill="#E0E0E0"/>
<path d="M701.033 328.784L698.851 291.239L676.974 292.259L673.834 328.94C680.291 331.986 694.033 332.049 701.033 328.784Z" fill="#EDA76A"/>
<path d="M660.912 272.04C663.307 278.248 663.259 283.026 659.206 284.825C655.156 286.624 646.396 284.257 644 278.047C641.602 271.831 642.946 265.343 647.001 263.545C651.051 261.748 658.516 265.829 660.912 272.04Z" fill="#FDC68A"/>
<path d="M650.901 279.41C654.158 300.671 669.314 314.943 690.701 313.055C710.157 311.338 723.611 284.145 724.157 259.337C724.704 234.53 711.411 214.907 687.92 215.271C651.942 215.827 644.04 234.607 650.901 279.41Z" fill="#FDC68A"/>
<path d="M712.684 270.06C710.21 276.239 710.199 281.016 714.231 282.865C718.258 284.714 727.044 282.457 729.517 276.275C731.994 270.092 730.727 263.589 726.698 261.739C722.672 259.891 715.156 263.878 712.684 270.06Z" fill="#FDC68A"/>
<path d="M679.025 268.61C681.185 267.717 683.535 267.16 685.946 267.206C688.31 267.259 690.917 267.796 692.743 269.786C693.62 270.782 694.013 272.343 693.564 273.626C693.152 274.914 692.297 275.905 691.352 276.669C689.453 278.218 687.195 279.064 684.945 279.672C687.018 278.602 689.065 277.452 690.683 275.918C691.469 275.147 692.155 274.261 692.392 273.293C692.676 272.339 692.413 271.365 691.759 270.615C691.121 269.842 690.153 269.302 689.139 268.919C688.118 268.522 687.009 268.325 685.889 268.205C683.64 267.997 681.327 268.194 679.025 268.61Z" fill="#9D5F54"/>
<path d="M675.398 267.561C675.189 268.362 674.371 268.844 673.567 268.636C672.765 268.426 672.284 267.608 672.492 266.806C672.7 266.003 673.519 265.522 674.322 265.729C675.124 265.937 675.606 266.759 675.398 267.561Z" fill="#5B3118"/>
<path d="M676.674 251.706C664.065 252.583 657.149 257.594 665.162 257.53C673.175 257.468 684.988 251.127 676.674 251.706Z" fill="#935025"/>
<path d="M695.062 267.561C695.27 268.362 696.089 268.844 696.892 268.636C697.693 268.426 698.175 267.608 697.967 266.806C697.758 266.003 696.939 265.522 696.137 265.729C695.334 265.937 694.854 266.759 695.062 267.561Z" fill="#5B3118"/>
<path d="M693.777 251.706C706.385 252.583 713.301 257.594 705.288 257.53C697.276 257.468 685.463 251.127 693.777 251.706Z" fill="#935025"/>
<path d="M664.382 271.628C664.382 272.475 662.185 273.162 659.477 273.162C656.769 273.162 654.573 272.475 654.573 271.628C654.573 270.783 656.769 270.097 659.477 270.097C662.185 270.097 664.382 270.783 664.382 271.628Z" fill="#F69D98"/>
<path d="M716.082 271.628C716.082 272.475 713.886 273.162 711.178 273.162C708.47 273.162 706.274 272.475 706.274 271.628C706.274 270.783 708.47 270.097 711.178 270.097C713.886 270.097 716.082 270.783 716.082 271.628Z" fill="#F69D98"/>
<path d="M652.604 294.152C657.19 304.538 663.596 312.028 670.932 314.911C684.209 320.129 695.711 318.506 705.54 312.967C727.66 300.502 723.243 237.363 723.243 237.363L716.996 238.583C716.996 238.583 718.636 280.029 712.876 286.818C710.423 289.71 700.498 284.075 687.364 283.949C671.837 283.795 659.082 290.711 656.815 287.612C654.096 283.905 649.962 262.229 654.847 238.266C656.793 228.715 645.298 237.959 645.298 237.959C645.298 237.959 646.677 280.724 652.604 294.152Z" fill="#AB662D"/>
<path d="M672.934 212.951L676.877 210.117C682.121 205.762 699.739 201.257 706.11 206.501C704.603 206.53 705.647 207.422 704.132 207.501C712.92 209.475 727.338 213.242 728.35 232.401C728.809 241.094 727.472 253.09 725.823 261.385C723.811 261.59 723.914 260.683 722.317 261.969C721.073 262.971 720.785 263.468 720.327 264.385C720.716 254.663 717.567 241.471 710.532 233.781C707.248 230.193 698.488 231.799 693.731 230.784C687.774 229.509 682.2 227.399 677.63 223.515C672.334 219.014 669.241 216.633 672.934 212.951Z" fill="#AB662D"/>
<path d="M680.494 209.95C686.181 211.892 693.568 213.407 696.796 218.894L695.029 218.363C700.993 225.508 683.258 244.95 678.685 249.588C673.463 254.89 666.68 257.571 660.156 259.139C660.001 257.993 660.136 256.733 660.4 255.538C660.666 254.858 660.864 254.206 660.924 253.652C660.726 254.238 660.542 254.879 660.4 255.538C659.669 257.375 658.358 259.438 657.312 260.511C654.876 263.012 649.122 270.825 648.574 276.9C640.638 245.315 639.153 227.028 653.899 213.76C661.378 207.028 676.585 208.617 680.494 209.95Z" fill="#AB662D"/>
<path d="M674.259 293.725C675.929 293.843 677.591 294.295 679.147 294.864C680.71 295.413 682.218 295.958 683.796 296.297C686.941 297.044 690.22 297.292 693.524 297.832C691.868 298.063 690.197 298.202 688.522 298.143C686.845 298.122 685.162 297.928 683.503 297.551C681.846 297.167 680.246 296.528 678.763 295.788C677.272 295.065 675.825 294.332 674.259 293.725Z" fill="#3F211B"/>
<path d="M739.738 210.673C736.582 207.862 732.621 200.657 726.109 198.606C719.596 196.555 713.025 198.858 707.959 205.24C702.893 211.623 705.05 213.615 706.603 212.604C708.158 211.592 715.455 205.479 719.253 205.472C723.05 205.463 726.478 209.984 732.499 212.431C738.563 214.894 739.529 213.512 739.738 210.673Z" fill="#FDC68A"/>
<path d="M738.95 205.801C738.117 207.988 735.09 211.148 730.811 213.002C743.212 225.464 762.753 268.539 767.971 281.213C773.189 293.886 790.98 296.183 798.562 286.831C805.845 277.848 806.877 267.388 783.833 245.238C763.152 225.359 738.95 205.801 738.95 205.801Z" fill="#ECECE8"/>
<path d="M578.426 324.975C573.573 326.007 572.072 320.169 572.945 317.544C573.82 314.919 574.049 311.907 573.565 309.569C573.079 307.232 573.249 304.78 575.157 304.444C577.065 304.107 576.79 307.233 577.689 312.358C578.59 317.485 583.807 323.832 578.426 324.975Z" fill="#FDC68A"/>
<path d="M1052.6 309.01C1060.72 305.73 1073.95 308.69 1085.47 322.825C1097.96 338.15 1102.38 360.819 1105.03 418.23C1106.65 453.448 1102.15 496.957 1102.15 496.957C1102.15 496.957 1054.98 518.635 1012.82 496.481C1012.1 475.281 1015.68 387.858 1020.92 355.46C1026.16 323.064 1040.21 314.011 1052.6 309.01Z" fill="#5497FF"/>
<path d="M978.887 413.156C978.887 413.156 963.16 411.311 954.229 410.05C945.299 408.787 940.675 404.882 936.697 401.575C933.409 398.842 931.169 396.306 932.678 394.905C934.692 393.034 941.065 399.817 942.639 400.956C945.066 402.713 946.699 403.628 949.613 404.004C953.229 404.468 960.151 404.515 962.675 402.769C965.198 401.022 960.054 396.361 958.404 394.225C956.754 392.09 955.977 390.828 957.82 390.051C959.666 389.274 966.85 395.972 969.179 399.565C971.509 403.156 977.626 407.33 980.732 407.816C981.759 409.858 978.887 413.156 978.887 413.156Z" fill="#FABE7C"/>
<path d="M1067.49 314.034L1057.09 258.022L1023.31 263L1035.07 327.71C1043.23 333.153 1060.21 319.846 1067.49 314.034Z" fill="#ED9F5E"/>
<path d="M1061.24 295.752C1061.24 295.752 1026.97 331.92 1013.35 324.46C1011.3 323.338 1000.15 303.682 999.392 302.239C992.421 289.028 985.493 265.647 985.158 255.197C984.258 227.1 1003.44 202.582 1024.56 204.7C1045.68 206.822 1094.84 222.401 1061.24 295.752Z" fill="#FABE7C"/>
<path d="M998.239 273.144L998.32 273.065L996.676 270.759C992.815 278.037 987.562 283.828 982.906 289.767C997.577 298.42 1007.15 285.087 1000.96 271.731C999.795 272.041 998.784 272.726 998.239 273.144C997.717 273.549 997.645 273.705 998.239 273.144Z" fill="#FABE7C"/>
<path d="M1044.63 267.317C1049.43 276.147 1056.18 295.305 1064.09 296.262C1070.45 285.133 1078.97 268.606 1081.03 255.806C1083.03 243.343 1080.88 219.247 1060.92 210.236C1041.3 199.443 1034.46 198.514 1026.06 200.668C1019.26 202.409 1006.1 206.991 999.485 213.347C996.432 216.277 993.531 219.847 991.4 223.452C990.166 225.538 989.427 230.77 988.409 233.93L989.064 232.732C995.873 235.25 1006.76 222.017 1012.35 226.93C1018.84 232.613 1020.32 255.477 1025.98 261.918C1030.81 267.427 1037.85 260.555 1044.63 267.317Z" fill="#935025"/>
<path d="M1048.96 266.247C1049.02 273.153 1044.38 281.989 1039.84 282.025C1035.3 282.061 1031.57 276.498 1031.52 269.592C1031.46 262.688 1033.57 253.285 1039.6 253.576C1044.13 253.795 1048.9 259.341 1048.96 266.247Z" fill="#FABE7C"/>
<path d="M985.935 238.35C991.493 240.511 1003.64 239.335 1007.74 238.686C1009.98 238.329 1012.21 237.894 1014.42 237.397C1011.84 235.473 1009.22 233.278 1007.46 231.248C1005.28 228.728 997.991 221.492 996.317 220.602C996.246 221.916 996.891 223.592 997.239 225.137C994.08 221.43 988.871 219.319 985.79 215.436C985.547 217.753 985.728 219.977 986.174 222.367C983.742 220.855 982.04 218.227 980.537 216.083C979.368 219.48 980.91 224.212 981.866 227.913C982.447 230.168 983.856 234.756 985.935 238.35Z" fill="#CA8D51"/>
<path d="M1025.27 296.846C1024.87 297.698 1024.26 298.425 1023.62 299.078C1022.99 299.74 1022.29 300.322 1021.59 300.892C1020.16 301.997 1018.7 303.021 1017.02 303.838C1018.07 302.291 1019.43 301.068 1020.84 299.94C1022.26 298.815 1023.74 297.873 1025.27 296.846Z" fill="#935025"/>
<path d="M997.479 279.235C998.048 280.077 999.19 280.298 1000.03 279.729C1000.87 279.161 1001.1 278.018 1000.53 277.177C999.96 276.334 998.817 276.112 997.976 276.68C997.134 277.249 996.911 278.392 997.479 279.235Z" fill="#5B3118"/>
<path d="M989.532 261.429C1004.46 257.295 1014.5 260.262 1005.21 263.458C995.927 266.656 979.689 264.154 989.532 261.429Z" fill="#935025"/>
<path d="M1045.05 226.408C1029.5 197.072 969.701 199.616 969.701 199.616C961.06 230.464 974.223 239.28 982.163 242.727C1001.23 251.005 1027.52 228.737 1041.54 241.389C1048.6 247.76 1059.8 292.846 1059.8 292.846C1059.8 292.846 1077.12 248.265 1069.05 230.525C1063.13 217.504 1045.05 226.408 1045.05 226.408Z" fill="#935025"/>
<path d="M1062.77 205.272C1059.24 205.488 1058.27 207.059 1058.27 207.059C1061.2 202.712 1060.05 196.309 1060.05 196.309C1052.89 199.576 1053.06 205.07 1053.06 205.07C1050.37 197.776 1040.3 194.654 1040.3 194.654C1040.1 200.457 1045.71 206.918 1046.03 207.128L1050.6 215.745L1061.81 215.034L1061.17 210.003C1063.21 207.605 1062.77 205.272 1062.77 205.272Z" fill="#935025"/>
<path d="M993.134 195.353C992.96 199.529 996.15 204.084 996.15 204.084C996.15 204.084 1054.17 251.901 1045.05 226.402C1035.93 200.901 993.134 195.353 993.134 195.353Z" fill="#935025"/>
<path d="M1074.38 321.611C1062.63 321.456 1052.95 331.635 1051.89 358.073C1051.16 376.397 1052.54 398.446 1053.17 407.195C1053.32 409.229 1051.64 410.919 1049.61 410.782C1035.06 409.794 984.262 406.359 980.908 406.359C976.991 406.359 974.677 414.371 979.305 416.864C983.935 419.356 1025.6 436.27 1048.39 441.255C1071.18 446.241 1089.6 445.3 1091.12 436.449C1094.11 419.032 1095.21 368.257 1093.08 351.522C1090.94 334.785 1087.91 321.789 1074.38 321.611Z" fill="#0467FF"/>
<circle cx="923.88" cy="319.614" r="5.13687" fill="url(#paint8_linear_0_1)"/>
<circle cx="949.564" cy="351.876" r="5.13687" fill="url(#paint9_linear_0_1)"/>
<circle cx="965.831" cy="351.876" r="2.56843" fill="url(#paint10_linear_0_1)"/>
<circle cx="961.066" cy="363.378" r="2.56843" transform="rotate(45 961.066 363.378)" fill="url(#paint11_linear_0_1)"/>
<circle cx="949.288" cy="368.142" r="2.56843" transform="rotate(90 949.288 368.142)" fill="url(#paint12_linear_0_1)"/>
<circle cx="937.786" cy="363.378" r="2.56843" transform="rotate(135 937.786 363.378)" fill="url(#paint13_linear_0_1)"/>
<circle cx="933.297" cy="351.876" r="2.56843" fill="url(#paint14_linear_0_1)"/>
<circle cx="938.062" cy="340.373" r="2.56843" transform="rotate(45 938.062 340.373)" fill="url(#paint15_linear_0_1)"/>
<circle cx="949.288" cy="335.609" r="2.56843" transform="rotate(90 949.288 335.609)" fill="url(#paint16_linear_0_1)"/>
<circle cx="960.79" cy="340.373" r="2.56843" transform="rotate(135 960.79 340.373)" fill="url(#paint17_linear_0_1)"/>
<line x1="4" y1="408" x2="4" y2="452" stroke="#01FF88" stroke-width="2" stroke-linecap="round" stroke-linejoin="round"/>
<path d="M2.928 185V139.56H12.08V177H32.176V185H2.928ZM67.405 169.064C67.405 170.045 67.341 171.048 67.213 172.072H45.261C45.773 173.949 46.7543 175.421 48.205 176.488C49.6557 177.555 51.4263 178.088 53.517 178.088C56.6743 178.088 59.213 176.915 61.133 174.568L66.573 179.624C63.501 183.592 58.957 185.576 52.941 185.576C48.1197 185.576 44.173 184.083 41.101 181.096C38.0717 178.109 36.557 174.184 36.557 169.32C36.557 164.584 38.029 160.723 40.973 157.736C43.9597 154.749 47.7783 153.256 52.429 153.256C56.8237 153.256 60.4077 154.749 63.181 157.736C65.997 160.68 67.405 164.456 67.405 169.064ZM52.365 160.552C50.6583 160.552 49.165 161.043 47.885 162.024C46.6477 162.963 45.7943 164.307 45.325 166.056H59.085C58.1463 162.387 55.9063 160.552 52.365 160.552ZM87.03 185.576C82.678 185.576 79.094 184.083 76.278 181.096C73.5047 178.109 72.118 174.227 72.118 169.448C72.118 164.755 73.5047 160.893 76.278 157.864C79.094 154.792 82.614 153.256 86.838 153.256C90.7207 153.256 93.7927 154.621 96.054 157.352L96.182 157.288V153.704H104.566V185H96.566V181.288L96.438 181.224C94.1767 184.125 91.0407 185.576 87.03 185.576ZM88.63 178.024C90.8487 178.024 92.726 177.235 94.262 175.656C95.798 174.077 96.566 172.029 96.566 169.512C96.566 166.995 95.798 164.904 94.262 163.24C92.7687 161.576 90.8913 160.744 88.63 160.744C86.326 160.744 84.406 161.555 82.87 163.176C81.3767 164.755 80.63 166.867 80.63 169.512C80.63 172.029 81.3767 174.077 82.87 175.656C84.3633 177.235 86.2833 178.024 88.63 178.024ZM112.535 185V153.704H120.919V158.248H121.047C123.522 154.92 126.658 153.256 130.455 153.256H131.095V162.408C130.498 162.365 129.751 162.344 128.855 162.344C126.338 162.344 124.375 163.112 122.967 164.648C121.602 166.141 120.919 168.104 120.919 170.536V185H112.535ZM136.348 185V153.704H144.732V157.736H144.86C147.377 154.749 150.705 153.256 154.844 153.256C162.396 153.256 166.172 157.651 166.172 166.44V185H157.788V168.552C157.788 165.693 157.297 163.688 156.316 162.536C155.334 161.341 153.82 160.744 151.772 160.744C149.596 160.744 147.868 161.491 146.588 162.984C145.35 164.435 144.732 166.547 144.732 169.32V185H136.348ZM2.16 269V237.704H10.544V241.736H10.672C13.1893 238.749 16.5173 237.256 20.656 237.256C28.208 237.256 31.984 241.651 31.984 250.44V269H23.6V252.552C23.6 249.693 23.1093 247.688 22.128 246.536C21.1467 245.341 19.632 244.744 17.584 244.744C15.408 244.744 13.68 245.491 12.4 246.984C11.1627 248.435 10.544 250.547 10.544 253.32V269H2.16ZM68.905 253.064C68.905 254.045 68.841 255.048 68.713 256.072H46.761C47.273 257.949 48.2543 259.421 49.705 260.488C51.1557 261.555 52.9263 262.088 55.017 262.088C58.1743 262.088 60.713 260.915 62.633 258.568L68.073 263.624C65.001 267.592 60.457 269.576 54.441 269.576C49.6197 269.576 45.673 268.083 42.601 265.096C39.5717 262.109 38.057 258.184 38.057 253.32C38.057 248.584 39.529 244.723 42.473 241.736C45.4597 238.749 49.2783 237.256 53.929 237.256C58.3237 237.256 61.9077 238.749 64.681 241.736C67.497 244.68 68.905 248.456 68.905 253.064ZM53.865 244.552C52.1583 244.552 50.665 245.043 49.385 246.024C48.1477 246.963 47.2943 248.307 46.825 250.056H60.585C59.6463 246.387 57.4063 244.552 53.865 244.552ZM81.212 269L70.652 237.704H79.1L85.116 256.84H85.18L90.748 237.704H97.468L103.1 256.84H103.228L109.18 237.704H117.564L106.94 269H99.708L94.076 249.992H94.012L88.444 269H81.212ZM153.685 269.576C148.992 269.576 145.13 268.083 142.101 265.096C139.072 262.109 137.557 258.227 137.557 253.448C137.557 248.627 139.072 244.723 142.101 241.736C145.13 238.749 149.077 237.256 153.941 237.256C156.501 237.256 158.954 237.747 161.301 238.728C163.648 239.667 165.61 241.053 167.189 242.888L161.685 248.072C159.893 245.853 157.504 244.744 154.517 244.744C152 244.744 149.952 245.555 148.373 247.176C146.837 248.755 146.069 250.824 146.069 253.384C146.069 255.987 146.837 258.077 148.373 259.656C149.952 261.235 152 262.024 154.517 262.024C157.589 262.024 160.042 260.893 161.877 258.632L167.317 263.88C164.245 267.677 159.701 269.576 153.685 269.576ZM188.01 269.576C183.06 269.576 179.05 268.061 175.978 265.032C172.906 262.003 171.37 258.12 171.37 253.384C171.37 248.691 172.906 244.829 175.978 241.8C179.05 238.771 183.06 237.256 188.01 237.256C192.874 237.256 196.842 238.749 199.914 241.736C203.028 244.723 204.586 248.605 204.586 253.384C204.586 258.163 203.028 262.067 199.914 265.096C196.842 268.083 192.874 269.576 188.01 269.576ZM188.01 262.024C190.271 262.024 192.17 261.213 193.706 259.592C195.284 257.971 196.074 255.901 196.074 253.384C196.074 250.824 195.306 248.755 193.77 247.176C192.234 245.555 190.314 244.744 188.01 244.744C185.62 244.744 183.658 245.576 182.122 247.24C180.628 248.861 179.882 250.909 179.882 253.384C179.882 255.859 180.628 257.928 182.122 259.592C183.658 261.213 185.62 262.024 188.01 262.024ZM211.16 269V237.704H219.544V241.736H219.672C222.189 238.749 225.517 237.256 229.656 237.256C237.208 237.256 240.984 241.651 240.984 250.44V269H232.6V252.552C232.6 249.693 232.109 247.688 231.128 246.536C230.147 245.341 228.632 244.744 226.584 244.744C224.408 244.744 222.68 245.491 221.4 246.984C220.163 248.435 219.544 250.547 219.544 253.32V269H211.16ZM263.185 269.576C258.492 269.576 254.63 268.083 251.601 265.096C248.572 262.109 247.057 258.227 247.057 253.448C247.057 248.627 248.572 244.723 251.601 241.736C254.63 238.749 258.577 237.256 263.441 237.256C266.001 237.256 268.454 237.747 270.801 238.728C273.148 239.667 275.11 241.053 276.689 242.888L271.185 248.072C269.393 245.853 267.004 244.744 264.017 244.744C261.5 244.744 259.452 245.555 257.873 247.176C256.337 248.755 255.569 250.824 255.569 253.384C255.569 255.987 256.337 258.077 257.873 259.656C259.452 261.235 261.5 262.024 264.017 262.024C267.089 262.024 269.542 260.893 271.377 258.632L276.817 263.88C273.745 267.677 269.201 269.576 263.185 269.576ZM311.718 253.064C311.718 254.045 311.654 255.048 311.526 256.072H289.574C290.086 257.949 291.067 259.421 292.518 260.488C293.968 261.555 295.739 262.088 297.83 262.088C300.987 262.088 303.526 260.915 305.446 258.568L310.886 263.624C307.814 267.592 303.27 269.576 297.253 269.576C292.432 269.576 288.486 268.083 285.414 265.096C282.384 262.109 280.87 258.184 280.87 253.32C280.87 248.584 282.342 244.723 285.286 241.736C288.272 238.749 292.091 237.256 296.742 237.256C301.136 237.256 304.72 238.749 307.494 241.736C310.31 244.68 311.718 248.456 311.718 253.064ZM296.678 244.552C294.971 244.552 293.478 245.043 292.198 246.024C290.96 246.963 290.107 248.307 289.638 250.056H303.398C302.459 246.387 300.219 244.552 296.678 244.552ZM318.223 281.672V237.704H326.607V241.288H326.735C329.039 238.6 332.175 237.256 336.143 237.256C340.409 237.256 343.929 238.792 346.703 241.864C349.519 244.893 350.927 248.755 350.927 253.448C350.927 258.227 349.519 262.109 346.703 265.096C343.887 268.083 340.281 269.576 335.887 269.576C332.047 269.576 328.996 268.211 326.735 265.48L326.607 265.544V281.672H318.223ZM328.527 259.656C330.105 261.235 332.068 262.024 334.415 262.024C336.761 262.024 338.681 261.235 340.175 259.656C341.668 258.035 342.415 255.987 342.415 253.512C342.415 250.867 341.647 248.755 340.111 247.176C338.575 245.555 336.655 244.744 334.351 244.744C331.961 244.744 329.999 245.576 328.463 247.24C326.969 248.861 326.223 250.952 326.223 253.512C326.223 256.029 326.991 258.077 328.527 259.656ZM367.199 269.576C364.426 269.576 362.25 268.701 360.671 266.952C359.092 265.16 358.303 262.557 358.303 259.144V244.68H354.591V237.704H358.303V227.528L366.687 226.632V237.704H375.135V244.68H366.687V257.928C366.687 259.336 366.879 260.36 367.263 261C367.69 261.64 368.394 261.96 369.375 261.96C370.57 261.96 371.892 261.597 373.343 260.872L375.455 267.592C373.023 268.915 370.271 269.576 367.199 269.576ZM391.272 269.576C386.365 269.576 382.141 268.04 378.6 264.968L382.632 259.144C385.235 261.533 388.136 262.728 391.336 262.728C392.531 262.728 393.448 262.493 394.088 262.024C394.771 261.555 395.112 260.936 395.112 260.168C395.112 259.528 394.707 258.995 393.896 258.568C393.128 258.099 391.656 257.501 389.48 256.776C386.408 255.752 384.019 254.493 382.312 253C380.648 251.464 379.816 249.309 379.816 246.536C379.816 243.763 380.883 241.523 383.016 239.816C385.149 238.109 387.859 237.256 391.144 237.256C395.368 237.256 399.165 238.557 402.536 241.16L398.44 247.368C396.179 245.149 393.683 244.04 390.952 244.04C390.184 244.04 389.501 244.232 388.904 244.616C388.307 245 388.008 245.576 388.008 246.344C388.008 247.411 389.544 248.52 392.616 249.672C394.323 250.312 395.581 250.803 396.392 251.144C397.203 251.443 398.163 251.912 399.272 252.552C400.381 253.149 401.149 253.747 401.576 254.344C402.045 254.941 402.451 255.709 402.792 256.648C403.176 257.544 403.368 258.611 403.368 259.848C403.368 262.749 402.323 265.096 400.232 266.888C398.184 268.68 395.197 269.576 391.272 269.576ZM31.28 337.064C31.28 338.045 31.216 339.048 31.088 340.072H9.136C9.648 341.949 10.6293 343.421 12.08 344.488C13.5307 345.555 15.3013 346.088 17.392 346.088C20.5493 346.088 23.088 344.915 25.008 342.568L30.448 347.624C27.376 351.592 22.832 353.576 16.816 353.576C11.9947 353.576 8.048 352.083 4.976 349.096C1.94667 346.109 0.432 342.184 0.432 337.32C0.432 332.584 1.904 328.723 4.848 325.736C7.83467 322.749 11.6533 321.256 16.304 321.256C20.6987 321.256 24.2827 322.749 27.056 325.736C29.872 328.68 31.28 332.456 31.28 337.064ZM16.24 328.552C14.5333 328.552 13.04 329.043 11.76 330.024C10.5227 330.963 9.66933 332.307 9.2 334.056H22.96C22.0213 330.387 19.7813 328.552 16.24 328.552ZM50.905 353.576C46.553 353.576 42.969 352.083 40.153 349.096C37.3797 346.109 35.993 342.227 35.993 337.448C35.993 332.755 37.3797 328.893 40.153 325.864C42.969 322.792 46.489 321.256 50.713 321.256C54.5957 321.256 57.6677 322.621 59.929 325.352L60.057 325.288V321.704H68.441V353H60.441V349.288L60.313 349.224C58.0517 352.125 54.9157 353.576 50.905 353.576ZM52.505 346.024C54.7237 346.024 56.601 345.235 58.137 343.656C59.673 342.077 60.441 340.029 60.441 337.512C60.441 334.995 59.673 332.904 58.137 331.24C56.6437 329.576 54.7663 328.744 52.505 328.744C50.201 328.744 48.281 329.555 46.745 331.176C45.2517 332.755 44.505 334.867 44.505 337.512C44.505 340.029 45.2517 342.077 46.745 343.656C48.2383 345.235 50.1583 346.024 52.505 346.024ZM90.81 353.576C86.1167 353.576 82.2553 352.083 79.226 349.096C76.1967 346.109 74.682 342.227 74.682 337.448C74.682 332.627 76.1967 328.723 79.226 325.736C82.2553 322.749 86.202 321.256 91.066 321.256C93.626 321.256 96.0793 321.747 98.426 322.728C100.773 323.667 102.735 325.053 104.314 326.888L98.81 332.072C97.018 329.853 94.6287 328.744 91.642 328.744C89.1247 328.744 87.0767 329.555 85.498 331.176C83.962 332.755 83.194 334.824 83.194 337.384C83.194 339.987 83.962 342.077 85.498 343.656C87.0767 345.235 89.1247 346.024 91.642 346.024C94.714 346.024 97.1673 344.893 99.002 342.632L104.442 347.88C101.37 351.677 96.826 353.576 90.81 353.576ZM110.223 353V305.896H118.607V325.48H118.671C121.231 322.664 124.644 321.256 128.911 321.256C136.548 321.256 140.367 325.587 140.367 334.248V353H131.983V336.36C131.983 333.587 131.471 331.624 130.447 330.472C129.465 329.32 127.951 328.744 125.903 328.744C123.599 328.744 121.807 329.469 120.527 330.92C119.247 332.328 118.607 334.419 118.607 337.192V353H110.223ZM164.598 353V321.704H172.982V325.8H173.046C175.563 322.771 178.678 321.256 182.39 321.256C186.742 321.256 189.814 322.899 191.606 326.184H191.734C194.294 322.899 197.942 321.256 202.678 321.256C210.016 321.256 213.686 325.8 213.686 334.888V353H205.302V336.872C205.302 331.453 203.488 328.744 199.862 328.744C198.027 328.744 196.491 329.512 195.254 331.048C194.059 332.541 193.462 334.653 193.462 337.384V353H185.078V336.872C185.078 331.453 183.243 328.744 179.574 328.744C177.611 328.744 176.011 329.512 174.774 331.048C173.579 332.541 172.982 334.653 172.982 337.384V353H164.598ZM226.207 317.48C224.671 317.48 223.391 316.989 222.367 316.008C221.386 314.984 220.895 313.747 220.895 312.296C220.895 310.888 221.386 309.693 222.367 308.712C223.391 307.688 224.671 307.176 226.207 307.176C227.7 307.176 228.959 307.688 229.983 308.712C231.007 309.693 231.519 310.888 231.519 312.296C231.519 313.747 231.007 314.984 229.983 316.008C228.959 316.989 227.7 317.48 226.207 317.48ZM221.919 353V321.704H230.303V353H221.919ZM239.035 353V321.704H247.419V325.736H247.547C250.064 322.749 253.392 321.256 257.531 321.256C265.083 321.256 268.859 325.651 268.859 334.44V353H260.475V336.552C260.475 333.693 259.984 331.688 259.003 330.536C258.022 329.341 256.507 328.744 254.459 328.744C252.283 328.744 250.555 329.491 249.275 330.984C248.038 332.435 247.419 334.547 247.419 337.32V353H239.035ZM287.604 353.576C279.924 353.576 276.084 349.245 276.084 340.584V321.704H284.404V338.408C284.404 341.224 284.831 343.208 285.684 344.36C286.58 345.469 288.031 346.024 290.036 346.024C291.956 346.024 293.577 345.235 294.9 343.656C296.265 342.035 296.948 339.795 296.948 336.936V321.704H305.396V353H296.948V349.288L296.82 349.224C294.431 352.125 291.359 353.576 287.604 353.576ZM323.137 353.576C320.363 353.576 318.187 352.701 316.609 350.952C315.03 349.16 314.241 346.557 314.241 343.144V328.68H310.529V321.704H314.241V311.528L322.625 310.632V321.704H331.073V328.68H322.625V341.928C322.625 343.336 322.817 344.36 323.201 345C323.627 345.64 324.331 345.96 325.312 345.96C326.507 345.96 327.83 345.597 329.281 344.872L331.393 351.592C328.961 352.915 326.209 353.576 323.137 353.576ZM364.655 337.064C364.655 338.045 364.591 339.048 364.463 340.072H342.511C343.023 341.949 344.004 343.421 345.455 344.488C346.906 345.555 348.676 346.088 350.767 346.088C353.924 346.088 356.463 344.915 358.383 342.568L363.823 347.624C360.751 351.592 356.207 353.576 350.191 353.576C345.37 353.576 341.423 352.083 338.351 349.096C335.322 346.109 333.807 342.184 333.807 337.32C333.807 332.584 335.279 328.723 338.223 325.736C341.21 322.749 345.028 321.256 349.679 321.256C354.074 321.256 357.658 322.749 360.431 325.736C363.247 328.68 364.655 332.456 364.655 337.064ZM349.615 328.552C347.908 328.552 346.415 329.043 345.135 330.024C343.898 330.963 343.044 332.307 342.575 334.056H356.335C355.396 330.387 353.156 328.552 349.615 328.552Z" fill="#333333"/>
<path d="M40.64 435.448L44.312 421.984H46.736L41.888 439H39.464L35.024 425.2L30.632 439H28.28L23.36 421.984H25.784L29.528 435.304L33.8 421.984H36.272L40.64 435.448ZM49.634 432.04H55.946C55.914 431.176 55.626 430.472 55.082 429.928C54.538 429.368 53.77 429.088 52.778 429.088C51.882 429.088 51.146 429.384 50.57 429.976C49.994 430.552 49.682 431.24 49.634 432.04ZM56.282 435.04L58.226 435.712C57.89 436.784 57.266 437.664 56.354 438.352C55.442 439.024 54.338 439.36 53.042 439.36C51.426 439.36 50.05 438.808 48.914 437.704C47.794 436.584 47.234 435.08 47.234 433.192C47.234 431.432 47.778 429.976 48.866 428.824C49.954 427.672 51.25 427.096 52.754 427.096C54.498 427.096 55.858 427.648 56.834 428.752C57.81 429.84 58.298 431.304 58.298 433.144C58.298 433.432 58.282 433.672 58.25 433.864H49.562C49.578 434.888 49.914 435.728 50.57 436.384C51.242 437.04 52.066 437.368 53.042 437.368C54.69 437.368 55.77 436.592 56.282 435.04ZM69.4338 432.208V439H67.1778V421.624H69.4338V428.8C70.2018 427.68 71.3698 427.12 72.9378 427.12C74.2658 427.12 75.2818 427.544 75.9858 428.392C76.7058 429.24 77.0658 430.336 77.0658 431.68V439H74.8098V432.064C74.8098 430.128 73.9138 429.16 72.1218 429.16C71.2898 429.16 70.6418 429.448 70.1778 430.024C69.7138 430.584 69.4658 431.312 69.4338 432.208ZM82.1184 432.04H88.4304C88.3984 431.176 88.1104 430.472 87.5664 429.928C87.0224 429.368 86.2544 429.088 85.2624 429.088C84.3664 429.088 83.6304 429.384 83.0544 429.976C82.4784 430.552 82.1664 431.24 82.1184 432.04ZM88.7664 435.04L90.7104 435.712C90.3744 436.784 89.7504 437.664 88.8384 438.352C87.9264 439.024 86.8224 439.36 85.5264 439.36C83.9104 439.36 82.5344 438.808 81.3984 437.704C80.2784 436.584 79.7184 435.08 79.7184 433.192C79.7184 431.432 80.2624 429.976 81.3504 428.824C82.4384 427.672 83.7344 427.096 85.2384 427.096C86.9824 427.096 88.3424 427.648 89.3184 428.752C90.2944 429.84 90.7824 431.304 90.7824 433.144C90.7824 433.432 90.7664 433.672 90.7344 433.864H82.0464C82.0624 434.888 82.3984 435.728 83.0544 436.384C83.7264 437.04 84.5504 437.368 85.5264 437.368C87.1744 437.368 88.2544 436.592 88.7664 435.04ZM95.9182 439H93.6622V421.624H95.9182V439ZM101.988 443.56H99.7559V427.456H101.94V429.256C102.276 428.648 102.78 428.152 103.452 427.768C104.124 427.384 104.908 427.192 105.804 427.192C107.468 427.192 108.764 427.76 109.692 428.896C110.636 430.032 111.108 431.472 111.108 433.216C111.108 434.976 110.62 436.432 109.644 437.584C108.684 438.736 107.38 439.312 105.732 439.312C104.884 439.312 104.132 439.136 103.476 438.784C102.82 438.432 102.324 437.984 101.988 437.44V443.56ZM108.804 433.216C108.804 432.048 108.492 431.088 107.868 430.336C107.26 429.568 106.436 429.184 105.396 429.184C104.372 429.184 103.54 429.568 102.9 430.336C102.276 431.088 101.964 432.048 101.964 433.216C101.964 434.416 102.276 435.4 102.9 436.168C103.54 436.92 104.372 437.296 105.396 437.296C106.42 437.296 107.244 436.92 107.868 436.168C108.492 435.4 108.804 434.416 108.804 433.216ZM122.863 443.824H120.391L123.271 437.728L118.303 427.456H120.895L124.495 435.424L127.951 427.456H130.375L122.863 443.824ZM134.452 436.264C135.156 436.984 136.012 437.344 137.02 437.344C138.028 437.344 138.876 436.984 139.564 436.264C140.268 435.528 140.62 434.512 140.62 433.216C140.62 431.936 140.268 430.936 139.564 430.216C138.876 429.48 138.028 429.112 137.02 429.112C136.012 429.112 135.156 429.48 134.452 430.216C133.764 430.936 133.42 431.936 133.42 433.216C133.42 434.512 133.764 435.528 134.452 436.264ZM132.772 428.848C133.892 427.68 135.308 427.096 137.02 427.096C138.732 427.096 140.14 427.68 141.244 428.848C142.364 430 142.924 431.456 142.924 433.216C142.924 434.992 142.372 436.464 141.268 437.632C140.164 438.784 138.748 439.36 137.02 439.36C135.292 439.36 133.876 438.784 132.772 437.632C131.668 436.464 131.116 434.992 131.116 433.216C131.116 431.456 131.668 430 132.772 428.848ZM153.301 437.608C152.997 438.184 152.533 438.624 151.909 438.928C151.285 439.216 150.613 439.36 149.893 439.36C148.581 439.36 147.533 438.928 146.749 438.064C145.965 437.184 145.573 436.072 145.573 434.728V427.456H147.829V434.392C147.829 435.256 148.037 435.968 148.453 436.528C148.885 437.088 149.549 437.368 150.445 437.368C151.341 437.368 152.021 437.104 152.485 436.576C152.949 436.032 153.181 435.312 153.181 434.416V427.456H155.437V436.864C155.437 437.616 155.477 438.328 155.557 439H153.397C153.333 438.648 153.301 438.184 153.301 437.608ZM167.519 443.56H165.287V427.456H167.471V429.256C167.807 428.648 168.311 428.152 168.983 427.768C169.655 427.384 170.439 427.192 171.335 427.192C172.999 427.192 174.295 427.76 175.223 428.896C176.167 430.032 176.639 431.472 176.639 433.216C176.639 434.976 176.151 436.432 175.175 437.584C174.215 438.736 172.911 439.312 171.263 439.312C170.415 439.312 169.663 439.136 169.007 438.784C168.351 438.432 167.855 437.984 167.519 437.44V443.56ZM174.335 433.216C174.335 432.048 174.023 431.088 173.399 430.336C172.791 429.568 171.967 429.184 170.927 429.184C169.903 429.184 169.071 429.568 168.431 430.336C167.807 431.088 167.495 432.048 167.495 433.216C167.495 434.416 167.807 435.4 168.431 436.168C169.071 436.92 169.903 437.296 170.927 437.296C171.951 437.296 172.775 436.92 173.399 436.168C174.023 435.4 174.335 434.416 174.335 433.216ZM185.922 427.336V429.736C185.586 429.688 185.258 429.664 184.938 429.664C182.826 429.664 181.77 430.848 181.77 433.216V439H179.514V427.456H181.722V429.472C182.426 428 183.578 427.264 185.178 427.264C185.434 427.264 185.682 427.288 185.922 427.336ZM189.673 432.04H195.985C195.953 431.176 195.665 430.472 195.121 429.928C194.577 429.368 193.809 429.088 192.817 429.088C191.921 429.088 191.185 429.384 190.609 429.976C190.033 430.552 189.721 431.24 189.673 432.04ZM196.321 435.04L198.265 435.712C197.929 436.784 197.305 437.664 196.393 438.352C195.481 439.024 194.377 439.36 193.081 439.36C191.465 439.36 190.089 438.808 188.953 437.704C187.833 436.584 187.273 435.08 187.273 433.192C187.273 431.432 187.817 429.976 188.905 428.824C189.993 427.672 191.289 427.096 192.793 427.096C194.537 427.096 195.897 427.648 196.873 428.752C197.849 429.84 198.337 431.304 198.337 433.144C198.337 433.432 198.321 433.672 198.289 433.864H189.601C189.617 434.888 189.953 435.728 190.609 436.384C191.281 437.04 192.105 437.368 193.081 437.368C194.729 437.368 195.809 436.592 196.321 435.04ZM203.449 443.56H201.217V427.456H203.401V429.256C203.737 428.648 204.241 428.152 204.913 427.768C205.585 427.384 206.369 427.192 207.265 427.192C208.929 427.192 210.225 427.76 211.153 428.896C212.097 430.032 212.569 431.472 212.569 433.216C212.569 434.976 212.081 436.432 211.105 437.584C210.145 438.736 208.841 439.312 207.193 439.312C206.345 439.312 205.593 439.136 204.937 438.784C204.281 438.432 203.785 437.984 203.449 437.44V443.56ZM210.265 433.216C210.265 432.048 209.953 431.088 209.329 430.336C208.721 429.568 207.897 429.184 206.857 429.184C205.833 429.184 205.001 429.568 204.361 430.336C203.737 431.088 203.425 432.048 203.425 433.216C203.425 434.416 203.737 435.4 204.361 436.168C205.001 436.92 205.833 437.296 206.857 437.296C207.881 437.296 208.705 436.92 209.329 436.168C209.953 435.4 210.265 434.416 210.265 433.216ZM214.723 435.904C214.723 434.912 215.043 434.12 215.683 433.528C216.323 432.92 217.171 432.544 218.227 432.4L221.347 431.944C221.939 431.864 222.235 431.576 222.235 431.08C222.235 430.472 222.027 429.976 221.611 429.592C221.195 429.208 220.571 429.016 219.739 429.016C218.971 429.016 218.363 429.232 217.915 429.664C217.467 430.08 217.203 430.64 217.123 431.344L214.963 430.84C215.075 429.736 215.579 428.84 216.475 428.152C217.371 427.448 218.443 427.096 219.691 427.096C221.323 427.096 222.531 427.496 223.315 428.296C224.099 429.08 224.491 430.088 224.491 431.32V437.104C224.491 437.792 224.539 438.424 224.635 439H222.427C222.347 438.52 222.307 438 222.307 437.44C221.987 437.952 221.515 438.4 220.891 438.784C220.283 439.168 219.515 439.36 218.587 439.36C217.451 439.36 216.523 439.024 215.803 438.352C215.083 437.664 214.723 436.848 214.723 435.904ZM218.899 437.464C219.907 437.464 220.715 437.192 221.323 436.648C221.931 436.104 222.235 435.24 222.235 434.056V433.528L218.707 434.056C218.195 434.136 217.787 434.32 217.483 434.608C217.179 434.896 217.027 435.288 217.027 435.784C217.027 436.232 217.195 436.624 217.531 436.96C217.883 437.296 218.339 437.464 218.899 437.464ZM234.414 427.336V429.736C234.078 429.688 233.75 429.664 233.43 429.664C231.318 429.664 230.262 430.848 230.262 433.216V439H228.006V427.456H230.214V429.472C230.918 428 232.07 427.264 233.67 427.264C233.926 427.264 234.174 427.288 234.414 427.336ZM238.165 432.04H244.477C244.445 431.176 244.157 430.472 243.613 429.928C243.069 429.368 242.301 429.088 241.309 429.088C240.413 429.088 239.677 429.384 239.101 429.976C238.525 430.552 238.213 431.24 238.165 432.04ZM244.813 435.04L246.757 435.712C246.421 436.784 245.797 437.664 244.885 438.352C243.973 439.024 242.869 439.36 241.573 439.36C239.957 439.36 238.581 438.808 237.445 437.704C236.325 436.584 235.765 435.08 235.765 433.192C235.765 431.432 236.309 429.976 237.397 428.824C238.485 427.672 239.781 427.096 241.285 427.096C243.029 427.096 244.389 427.648 245.365 428.752C246.341 429.84 246.829 431.304 246.829 433.144C246.829 433.432 246.813 433.672 246.781 433.864H238.093C238.109 434.888 238.445 435.728 239.101 436.384C239.773 437.04 240.597 437.368 241.573 437.368C243.221 437.368 244.301 436.592 244.813 435.04ZM261.517 429.496H258.733V439H256.405V429.496H254.269V427.456H256.405V425.512C256.405 424.28 256.765 423.312 257.485 422.608C258.205 421.904 259.109 421.552 260.197 421.552C260.885 421.552 261.333 421.632 261.541 421.792V423.808C261.301 423.712 260.973 423.664 260.557 423.664C260.061 423.664 259.629 423.816 259.261 424.12C258.909 424.408 258.733 424.912 258.733 425.632V427.456H261.517V429.496ZM265.843 436.264C266.547 436.984 267.403 437.344 268.411 437.344C269.419 437.344 270.267 436.984 270.955 436.264C271.659 435.528 272.011 434.512 272.011 433.216C272.011 431.936 271.659 430.936 270.955 430.216C270.267 429.48 269.419 429.112 268.411 429.112C267.403 429.112 266.547 429.48 265.843 430.216C265.155 430.936 264.811 431.936 264.811 433.216C264.811 434.512 265.155 435.528 265.843 436.264ZM264.163 428.848C265.283 427.68 266.699 427.096 268.411 427.096C270.123 427.096 271.531 427.68 272.635 428.848C273.755 430 274.315 431.456 274.315 433.216C274.315 434.992 273.763 436.464 272.659 437.632C271.555 438.784 270.139 439.36 268.411 439.36C266.683 439.36 265.267 438.784 264.163 437.632C263.059 436.464 262.507 434.992 262.507 433.216C262.507 431.456 263.059 430 264.163 428.848ZM283.609 427.336V429.736C283.273 429.688 282.945 429.664 282.625 429.664C280.513 429.664 279.457 430.848 279.457 433.216V439H277.201V427.456H279.409V429.472C280.113 428 281.265 427.264 282.865 427.264C283.121 427.264 283.369 427.288 283.609 427.336ZM293.478 432.04H299.79C299.758 431.176 299.47 430.472 298.926 429.928C298.382 429.368 297.614 429.088 296.622 429.088C295.726 429.088 294.99 429.384 294.414 429.976C293.838 430.552 293.526 431.24 293.478 432.04ZM300.126 435.04L302.07 435.712C301.734 436.784 301.11 437.664 300.198 438.352C299.286 439.024 298.182 439.36 296.886 439.36C295.27 439.36 293.894 438.808 292.758 437.704C291.638 436.584 291.078 435.08 291.078 433.192C291.078 431.432 291.622 429.976 292.71 428.824C293.798 427.672 295.094 427.096 296.598 427.096C298.342 427.096 299.702 427.648 300.678 428.752C301.654 429.84 302.142 431.304 302.142 433.144C302.142 433.432 302.126 433.672 302.094 433.864H293.406C293.422 434.888 293.758 435.728 294.414 436.384C295.086 437.04 295.91 437.368 296.886 437.368C298.534 437.368 299.614 436.592 300.126 435.04ZM303.224 439L307.52 433.12L303.368 427.456H306.104L308.936 431.512L311.72 427.456H314.384L310.28 433.12C310.52 433.424 311.232 434.408 312.416 436.072C313.6 437.72 314.304 438.696 314.528 439H311.816L308.84 434.752L305.912 439H303.224ZM315.973 435.904C315.973 434.912 316.293 434.12 316.933 433.528C317.573 432.92 318.421 432.544 319.477 432.4L322.597 431.944C323.189 431.864 323.485 431.576 323.485 431.08C323.485 430.472 323.277 429.976 322.861 429.592C322.445 429.208 321.821 429.016 320.989 429.016C320.221 429.016 319.613 429.232 319.165 429.664C318.717 430.08 318.453 430.64 318.373 431.344L316.213 430.84C316.325 429.736 316.829 428.84 317.725 428.152C318.621 427.448 319.693 427.096 320.941 427.096C322.573 427.096 323.781 427.496 324.565 428.296C325.349 429.08 325.741 430.088 325.741 431.32V437.104C325.741 437.792 325.789 438.424 325.885 439H323.677C323.597 438.52 323.557 438 323.557 437.44C323.237 437.952 322.765 438.4 322.141 438.784C321.533 439.168 320.765 439.36 319.837 439.36C318.701 439.36 317.773 439.024 317.053 438.352C316.333 437.664 315.973 436.848 315.973 435.904ZM320.149 437.464C321.157 437.464 321.965 437.192 322.573 436.648C323.181 436.104 323.485 435.24 323.485 434.056V433.528L319.957 434.056C319.445 434.136 319.037 434.32 318.733 434.608C318.429 434.896 318.277 435.288 318.277 435.784C318.277 436.232 318.445 436.624 318.781 436.96C319.133 437.296 319.589 437.464 320.149 437.464ZM331.488 439H329.256V427.456H331.416V428.992C331.768 428.384 332.264 427.92 332.904 427.6C333.544 427.28 334.216 427.12 334.92 427.12C335.672 427.12 336.36 427.304 336.984 427.672C337.608 428.04 338.072 428.584 338.376 429.304C339.176 427.848 340.464 427.12 342.24 427.12C343.344 427.12 344.28 427.496 345.048 428.248C345.832 429 346.224 430.088 346.224 431.512V439H343.992V431.752C343.992 430.952 343.784 430.312 343.368 429.832C342.968 429.352 342.36 429.112 341.544 429.112C340.76 429.112 340.12 429.392 339.624 429.952C339.128 430.496 338.88 431.184 338.88 432.016V439H336.624V431.752C336.624 430.952 336.416 430.312 336 429.832C335.6 429.352 334.992 429.112 334.176 429.112C333.376 429.112 332.728 429.384 332.232 429.928C331.736 430.472 331.488 431.176 331.488 432.04V439ZM348.754 436L350.794 435.28C350.874 435.904 351.146 436.424 351.61 436.84C352.074 437.24 352.698 437.44 353.482 437.44C354.09 437.44 354.57 437.296 354.922 437.008C355.274 436.704 355.45 436.336 355.45 435.904C355.45 435.136 354.954 434.64 353.962 434.416L351.994 433.984C351.098 433.792 350.394 433.408 349.882 432.832C349.37 432.256 349.114 431.56 349.114 430.744C349.114 429.752 349.514 428.896 350.314 428.176C351.13 427.456 352.098 427.096 353.218 427.096C353.954 427.096 354.61 427.208 355.186 427.432C355.762 427.64 356.21 427.92 356.53 428.272C356.85 428.624 357.09 428.952 357.25 429.256C357.41 429.56 357.53 429.872 357.61 430.192L355.618 430.936C355.586 430.744 355.53 430.56 355.45 430.384C355.37 430.192 355.242 429.984 355.066 429.76C354.906 429.536 354.666 429.36 354.346 429.232C354.026 429.088 353.65 429.016 353.218 429.016C352.658 429.016 352.194 429.168 351.826 429.472C351.474 429.776 351.298 430.136 351.298 430.552C351.298 431.288 351.738 431.752 352.618 431.944L354.49 432.352C355.514 432.576 356.298 432.992 356.842 433.6C357.402 434.192 357.682 434.92 357.682 435.784C357.682 436.696 357.306 437.52 356.554 438.256C355.818 438.992 354.786 439.36 353.458 439.36C352.034 439.36 350.922 439.008 350.122 438.304C349.322 437.584 348.866 436.816 348.754 436ZM365.966 435.904C365.966 434.912 366.286 434.12 366.926 433.528C367.566 432.92 368.414 432.544 369.47 432.4L372.59 431.944C373.182 431.864 373.478 431.576 373.478 431.08C373.478 430.472 373.27 429.976 372.854 429.592C372.438 429.208 371.814 429.016 370.982 429.016C370.214 429.016 369.606 429.232 369.158 429.664C368.71 430.08 368.446 430.64 368.366 431.344L366.206 430.84C366.318 429.736 366.822 428.84 367.718 428.152C368.614 427.448 369.686 427.096 370.934 427.096C372.566 427.096 373.774 427.496 374.558 428.296C375.342 429.08 375.734 430.088 375.734 431.32V437.104C375.734 437.792 375.782 438.424 375.878 439H373.67C373.59 438.52 373.55 438 373.55 437.44C373.23 437.952 372.758 438.4 372.134 438.784C371.526 439.168 370.758 439.36 369.83 439.36C368.694 439.36 367.766 439.024 367.046 438.352C366.326 437.664 365.966 436.848 365.966 435.904ZM370.142 437.464C371.15 437.464 371.958 437.192 372.566 436.648C373.174 436.104 373.478 435.24 373.478 434.056V433.528L369.95 434.056C369.438 434.136 369.03 434.32 368.726 434.608C368.422 434.896 368.27 435.288 368.27 435.784C368.27 436.232 368.438 436.624 368.774 436.96C369.126 437.296 369.582 437.464 370.142 437.464ZM381.504 432.328V439H379.248V427.456H381.456V429.112C382.224 427.784 383.408 427.12 385.008 427.12C386.336 427.12 387.352 427.544 388.056 428.392C388.776 429.24 389.136 430.336 389.136 431.68V439H386.88V432.064C386.88 430.128 385.984 429.16 384.192 429.16C383.344 429.16 382.68 429.464 382.2 430.072C381.736 430.664 381.504 431.416 381.504 432.328ZM394.069 433.192C394.069 434.408 394.365 435.4 394.957 436.168C395.565 436.936 396.397 437.32 397.453 437.32C398.461 437.32 399.269 436.928 399.877 436.144C400.485 435.36 400.789 434.36 400.789 433.144C400.789 431.944 400.493 430.976 399.901 430.24C399.309 429.504 398.501 429.136 397.477 429.136C396.453 429.136 395.629 429.512 395.005 430.264C394.381 431.016 394.069 431.992 394.069 433.192ZM400.813 437.44V437.248C400.509 437.84 400.045 438.336 399.421 438.736C398.813 439.12 398.085 439.312 397.237 439.312C395.589 439.312 394.261 438.736 393.253 437.584C392.261 436.416 391.765 434.952 391.765 433.192C391.765 431.512 392.277 430.088 393.301 428.92C394.325 427.736 395.637 427.144 397.237 427.144C398.181 427.144 398.949 427.336 399.541 427.72C400.133 428.088 400.541 428.544 400.765 429.088V421.624H402.997V436.864C402.997 437.648 403.037 438.36 403.117 439H400.933C400.853 438.552 400.813 438.032 400.813 437.44ZM423.178 443.56H420.946V437.368C420.642 437.96 420.17 438.432 419.53 438.784C418.906 439.136 418.178 439.312 417.346 439.312C415.73 439.312 414.41 438.728 413.386 437.56C412.378 436.376 411.874 434.92 411.874 433.192C411.874 431.496 412.362 430.072 413.338 428.92C414.33 427.752 415.65 427.168 417.298 427.168C418.226 427.168 419.002 427.368 419.626 427.768C420.266 428.168 420.722 428.656 420.994 429.232V427.456H423.178V443.56ZM415.09 430.288C414.482 431.024 414.178 431.992 414.178 433.192C414.178 434.392 414.482 435.384 415.09 436.168C415.714 436.936 416.538 437.32 417.562 437.32C418.57 437.32 419.386 436.936 420.01 436.168C420.65 435.384 420.97 434.392 420.97 433.192C420.97 431.992 420.658 431.024 420.034 430.288C419.41 429.536 418.586 429.16 417.562 429.16C416.522 429.16 415.698 429.536 415.09 430.288ZM434.387 437.608C434.083 438.184 433.619 438.624 432.995 438.928C432.371 439.216 431.699 439.36 430.979 439.36C429.667 439.36 428.619 438.928 427.835 438.064C427.051 437.184 426.659 436.072 426.659 434.728V427.456H428.915V434.392C428.915 435.256 429.123 435.968 429.539 436.528C429.971 437.088 430.635 437.368 431.531 437.368C432.427 437.368 433.107 437.104 433.571 436.576C434.035 436.032 434.267 435.312 434.267 434.416V427.456H436.523V436.864C436.523 437.616 436.563 438.328 436.643 439H434.483C434.419 438.648 434.387 438.184 434.387 437.608ZM442.605 439H440.373V427.456H442.605V439ZM440.325 424.24C440.021 423.92 439.869 423.536 439.869 423.088C439.869 422.64 440.021 422.256 440.325 421.936C440.645 421.616 441.029 421.456 441.477 421.456C441.925 421.456 442.309 421.616 442.629 421.936C442.949 422.24 443.109 422.624 443.109 423.088C443.109 423.536 442.949 423.92 442.629 424.24C442.309 424.544 441.925 424.696 441.477 424.696C441.029 424.696 440.645 424.544 440.325 424.24ZM454.747 439H445.483V437.032L451.819 429.496H445.579V427.456H454.627V429.424L448.291 436.96H454.747V439ZM459.087 432.04H465.399C465.367 431.176 465.079 430.472 464.535 429.928C463.991 429.368 463.223 429.088 462.231 429.088C461.335 429.088 460.599 429.384 460.023 429.976C459.447 430.552 459.135 431.24 459.087 432.04ZM465.735 435.04L467.679 435.712C467.343 436.784 466.719 437.664 465.807 438.352C464.895 439.024 463.791 439.36 462.495 439.36C460.879 439.36 459.503 438.808 458.367 437.704C457.247 436.584 456.687 435.08 456.687 433.192C456.687 431.432 457.231 429.976 458.319 428.824C459.407 427.672 460.703 427.096 462.207 427.096C463.951 427.096 465.311 427.648 466.287 428.752C467.263 429.84 467.751 431.304 467.751 433.144C467.751 433.432 467.735 433.672 467.703 433.864H459.015C459.031 434.888 459.367 435.728 460.023 436.384C460.695 437.04 461.519 437.368 462.495 437.368C464.143 437.368 465.223 436.592 465.735 435.04ZM469.551 436L471.591 435.28C471.671 435.904 471.943 436.424 472.407 436.84C472.871 437.24 473.495 437.44 474.279 437.44C474.887 437.44 475.367 437.296 475.719 437.008C476.071 436.704 476.247 436.336 476.247 435.904C476.247 435.136 475.751 434.64 474.759 434.416L472.791 433.984C471.895 433.792 471.191 433.408 470.679 432.832C470.167 432.256 469.911 431.56 469.911 430.744C469.911 429.752 470.311 428.896 471.111 428.176C471.927 427.456 472.895 427.096 474.015 427.096C474.751 427.096 475.407 427.208 475.983 427.432C476.559 427.64 477.007 427.92 477.327 428.272C477.647 428.624 477.887 428.952 478.047 429.256C478.207 429.56 478.327 429.872 478.407 430.192L476.415 430.936C476.383 430.744 476.327 430.56 476.247 430.384C476.167 430.192 476.039 429.984 475.863 429.76C475.703 429.536 475.463 429.36 475.143 429.232C474.823 429.088 474.447 429.016 474.015 429.016C473.455 429.016 472.991 429.168 472.623 429.472C472.271 429.776 472.095 430.136 472.095 430.552C472.095 431.288 472.535 431.752 473.415 431.944L475.287 432.352C476.311 432.576 477.095 432.992 477.639 433.6C478.199 434.192 478.479 434.92 478.479 435.784C478.479 436.696 478.103 437.52 477.351 438.256C476.615 438.992 475.583 439.36 474.255 439.36C472.831 439.36 471.719 439.008 470.919 438.304C470.119 437.584 469.663 436.816 469.551 436Z" fill="#828282"/>
<defs>
<filter id="filter0_d_0_1" x="758.896" y="191.466" width="68.8422" height="68.8422" filterUnits="userSpaceOnUse" color-interpolation-filters="sRGB">
<feFlood flood-opacity="0" result="BackgroundImageFix"/>
<feColorMatrix in="SourceAlpha" type="matrix" values="0 0 0 0 0 0 0 0 0 0 0 0 0 0 0 0 0 0 127 0" result="hardAlpha"/>
<feMorphology radius="12" operator="erode" in="SourceAlpha" result="effect1_dropShadow_0_1"/>
<feOffset dy="18"/>
<feGaussianBlur stdDeviation="20"/>
<feColorMatrix type="matrix" values="0 0 0 0 0.243137 0 0 0 0 0.741176 0 0 0 0 1 0 0 0 0.45 0"/>
<feBlend mode="normal" in2="BackgroundImageFix" result="effect1_dropShadow_0_1"/>
<feBlend mode="normal" in="SourceGraphic" in2="effect1_dropShadow_0_1" result="shape"/>
</filter>
<filter id="filter1_d_0_1" x="1106.49" y="356.701" width="68.8422" height="68.8422" filterUnits="userSpaceOnUse" color-interpolation-filters="sRGB">
<feFlood flood-opacity="0" result="BackgroundImageFix"/>
<feColorMatrix in="SourceAlpha" type="matrix" values="0 0 0 0 0 0 0 0 0 0 0 0 0 0 0 0 0 0 127 0" result="hardAlpha"/>
<feMorphology radius="12" operator="erode" in="SourceAlpha" result="effect1_dropShadow_0_1"/>
<feOffset dy="18"/>
<feGaussianBlur stdDeviation="20"/>
<feColorMatrix type="matrix" values="0 0 0 0 0.243137 0 0 0 0 0.741176 0 0 0 0 1 0 0 0 0.45 0"/>
<feBlend mode="normal" in2="BackgroundImageFix" result="effect1_dropShadow_0_1"/>
<feBlend mode="normal" in="SourceGraphic" in2="effect1_dropShadow_0_1" result="shape"/>
</filter>
<filter id="filter2_d_0_1" x="969.508" y="486.836" width="68.8422" height="68.8422" filterUnits="userSpaceOnUse" color-interpolation-filters="sRGB">
<feFlood flood-opacity="0" result="BackgroundImageFix"/>
<feColorMatrix in="SourceAlpha" type="matrix" values="0 0 0 0 0 0 0 0 0 0 0 0 0 0 0 0 0 0 127 0" result="hardAlpha"/>
<feMorphology radius="12" operator="erode" in="SourceAlpha" result="effect1_dropShadow_0_1"/>
<feOffset dy="18"/>
<feGaussianBlur stdDeviation="20"/>
<feColorMatrix type="matrix" values="0 0 0 0 0.243137 0 0 0 0 0.741176 0 0 0 0 1 0 0 0 0.45 0"/>
<feBlend mode="normal" in2="BackgroundImageFix" result="effect1_dropShadow_0_1"/>
<feBlend mode="normal" in="SourceGraphic" in2="effect1_dropShadow_0_1" result="shape"/>
</filter>
<filter id="filter3_d_0_1" x="725.507" y="476.562" width="82.5405" height="82.5405" filterUnits="userSpaceOnUse" color-interpolation-filters="sRGB">
<feFlood flood-opacity="0" result="BackgroundImageFix"/>
<feColorMatrix in="SourceAlpha" type="matrix" values="0 0 0 0 0 0 0 0 0 0 0 0 0 0 0 0 0 0 127 0" result="hardAlpha"/>
<feMorphology radius="12" operator="erode" in="SourceAlpha" result="effect1_dropShadow_0_1"/>
<feOffset dy="18"/>
<feGaussianBlur stdDeviation="20"/>
<feColorMatrix type="matrix" values="0 0 0 0 0.243137 0 0 0 0 0.741176 0 0 0 0 1 0 0 0 0.45 0"/>
<feBlend mode="normal" in2="BackgroundImageFix" result="effect1_dropShadow_0_1"/>
<feBlend mode="normal" in="SourceGraphic" in2="effect1_dropShadow_0_1" result="shape"/>
</filter>
<filter id="filter4_d_0_1" x="961.803" y="437.179" width="71.4106" height="71.4106" filterUnits="userSpaceOnUse" color-interpolation-filters="sRGB">
<feFlood flood-opacity="0" result="BackgroundImageFix"/>
<feColorMatrix in="SourceAlpha" type="matrix" values="0 0 0 0 0 0 0 0 0 0 0 0 0 0 0 0 0 0 127 0" result="hardAlpha"/>
<feMorphology radius="12" operator="erode" in="SourceAlpha" result="effect1_dropShadow_0_1"/>
<feOffset dy="18"/>
<feGaussianBlur stdDeviation="20"/>
<feColorMatrix type="matrix" values="0 0 0 0 0.243137 0 0 0 0 0.741176 0 0 0 0 1 0 0 0 0.45 0"/>
<feBlend mode="normal" in2="BackgroundImageFix" result="effect1_dropShadow_0_1"/>
<feBlend mode="normal" in="SourceGraphic" in2="effect1_dropShadow_0_1" result="shape"/>
</filter>
<filter id="filter5_d_0_1" x="549.141" y="436.323" width="71.4106" height="71.4106" filterUnits="userSpaceOnUse" color-interpolation-filters="sRGB">
<feFlood flood-opacity="0" result="BackgroundImageFix"/>
<feColorMatrix in="SourceAlpha" type="matrix" values="0 0 0 0 0 0 0 0 0 0 0 0 0 0 0 0 0 0 127 0" result="hardAlpha"/>
<feMorphology radius="12" operator="erode" in="SourceAlpha" result="effect1_dropShadow_0_1"/>
<feOffset dy="18"/>
<feGaussianBlur stdDeviation="20"/>
<feColorMatrix type="matrix" values="0 0 0 0 0.243137 0 0 0 0 0.741176 0 0 0 0 1 0 0 0 0.45 0"/>
<feBlend mode="normal" in2="BackgroundImageFix" result="effect1_dropShadow_0_1"/>
<feBlend mode="normal" in="SourceGraphic" in2="effect1_dropShadow_0_1" result="shape"/>
</filter>
<filter id="filter6_d_0_1" x="880.469" y="506.527" width="63.7053" height="63.7053" filterUnits="userSpaceOnUse" color-interpolation-filters="sRGB">
<feFlood flood-opacity="0" result="BackgroundImageFix"/>
<feColorMatrix in="SourceAlpha" type="matrix" values="0 0 0 0 0 0 0 0 0 0 0 0 0 0 0 0 0 0 127 0" result="hardAlpha"/>
<feMorphology radius="12" operator="erode" in="SourceAlpha" result="effect1_dropShadow_0_1"/>
<feOffset dy="18"/>
<feGaussianBlur stdDeviation="20"/>
<feColorMatrix type="matrix" values="0 0 0 0 0.243137 0 0 0 0 0.741176 0 0 0 0 1 0 0 0 0.45 0"/>
<feBlend mode="normal" in2="BackgroundImageFix" result="effect1_dropShadow_0_1"/>
<feBlend mode="normal" in="SourceGraphic" in2="effect1_dropShadow_0_1" result="shape"/>
</filter>
<linearGradient id="paint0_linear_0_1" x1="786.896" y1="201.466" x2="800.818" y2="202.768" gradientUnits="userSpaceOnUse">
<stop stop-color="#1884FF"/>
<stop offset="1" stop-color="#49CDFF"/>
</linearGradient>
<linearGradient id="paint1_linear_0_1" x1="1134.49" y1="366.701" x2="1148.41" y2="368.003" gradientUnits="userSpaceOnUse">
<stop stop-color="#1884FF"/>
<stop offset="1" stop-color="#49CDFF"/>
</linearGradient>
<linearGradient id="paint2_linear_0_1" x1="997.508" y1="496.836" x2="1011.43" y2="498.138" gradientUnits="userSpaceOnUse">
<stop stop-color="#1884FF"/>
<stop offset="1" stop-color="#49CDFF"/>
</linearGradient>
<linearGradient id="paint3_linear_0_1" x1="753.507" y1="486.562" x2="782.278" y2="489.253" gradientUnits="userSpaceOnUse">
<stop stop-color="#1884FF"/>
<stop offset="1" stop-color="#49CDFF"/>
</linearGradient>
<linearGradient id="paint4_linear_0_1" x1="989.803" y1="447.179" x2="1006.51" y2="448.742" gradientUnits="userSpaceOnUse">
<stop stop-color="#1884FF"/>
<stop offset="1" stop-color="#49CDFF"/>
</linearGradient>
<linearGradient id="paint5_linear_0_1" x1="577.141" y1="446.323" x2="593.847" y2="447.885" gradientUnits="userSpaceOnUse">
<stop stop-color="#1884FF"/>
<stop offset="1" stop-color="#49CDFF"/>
</linearGradient>
<linearGradient id="paint6_linear_0_1" x1="908.469" y1="516.527" x2="916.822" y2="517.308" gradientUnits="userSpaceOnUse">
<stop stop-color="#1884FF"/>
<stop offset="1" stop-color="#49CDFF"/>
</linearGradient>
<linearGradient id="paint7_linear_0_1" x1="574.929" y1="213.659" x2="574.929" y2="316.487" gradientUnits="userSpaceOnUse">
<stop stop-color="#01FF88"/>
<stop offset="1" stop-color="#43F3DB"/>
</linearGradient>
<linearGradient id="paint8_linear_0_1" x1="923.88" y1="314.477" x2="923.88" y2="324.75" gradientUnits="userSpaceOnUse">
<stop stop-color="#01FF88"/>
<stop offset="1" stop-color="#42F4DA"/>
</linearGradient>
<linearGradient id="paint9_linear_0_1" x1="949.564" y1="346.739" x2="949.564" y2="357.013" gradientUnits="userSpaceOnUse">
<stop stop-color="#01FF88"/>
<stop offset="1" stop-color="#42F4DA"/>
</linearGradient>
<linearGradient id="paint10_linear_0_1" x1="965.831" y1="349.307" x2="965.831" y2="354.444" gradientUnits="userSpaceOnUse">
<stop stop-color="#01FF88"/>
<stop offset="1" stop-color="#42F4DA"/>
</linearGradient>
<linearGradient id="paint11_linear_0_1" x1="961.066" y1="360.81" x2="961.066" y2="365.946" gradientUnits="userSpaceOnUse">
<stop stop-color="#01FF88"/>
<stop offset="1" stop-color="#42F4DA"/>
</linearGradient>
<linearGradient id="paint12_linear_0_1" x1="949.288" y1="365.574" x2="949.288" y2="370.711" gradientUnits="userSpaceOnUse">
<stop stop-color="#01FF88"/>
<stop offset="1" stop-color="#42F4DA"/>
</linearGradient>
<linearGradient id="paint13_linear_0_1" x1="937.786" y1="360.81" x2="937.786" y2="365.946" gradientUnits="userSpaceOnUse">
<stop stop-color="#01FF88"/>
<stop offset="1" stop-color="#42F4DA"/>
</linearGradient>
<linearGradient id="paint14_linear_0_1" x1="933.297" y1="349.307" x2="933.297" y2="354.444" gradientUnits="userSpaceOnUse">
<stop stop-color="#01FF88"/>
<stop offset="1" stop-color="#42F4DA"/>
</linearGradient>
<linearGradient id="paint15_linear_0_1" x1="938.062" y1="337.805" x2="938.062" y2="342.942" gradientUnits="userSpaceOnUse">
<stop stop-color="#01FF88"/>
<stop offset="1" stop-color="#42F4DA"/>
</linearGradient>
<linearGradient id="paint16_linear_0_1" x1="949.288" y1="333.04" x2="949.288" y2="338.177" gradientUnits="userSpaceOnUse">
<stop stop-color="#01FF88"/>
<stop offset="1" stop-color="#42F4DA"/>
</linearGradient>
<linearGradient id="paint17_linear_0_1" x1="960.79" y1="337.805" x2="960.79" y2="342.942" gradientUnits="userSpaceOnUse">
<stop stop-color="#01FF88"/>
<stop offset="1" stop-color="#42F4DA"/>
</linearGradient>
</defs>
</svg>
